<svg width="36" height="36" viewBox="0 0 36 36" fill="none" xmlns="http://www.w3.org/2000/svg">
<path d="M24.333 23.6387C23.497 23.8857 22.509 23.9997 21.35 23.9997H15.65C14.491 23.9997 13.503 23.8857 12.667 23.6387C12.876 21.1687 15.4125 19.2212 18.5 19.2212C21.5875 19.2212 24.124 21.1687 24.333 23.6387Z" stroke="#FFFEFE" stroke-width="1.5" stroke-linecap="round" stroke-linejoin="round"/>
<path d="M21.35 5H15.65C10.9 5 9 6.9 9 11.65V17.35C9 20.941 10.083 22.9075 12.667 23.639C12.876 21.169 15.4125 19.2215 18.5 19.2215C21.5875 19.2215 24.124 21.169 24.333 23.639C26.917 22.9075 28 20.941 28 17.35V11.65C28 6.9 26.1 5 21.35 5ZM18.5 16.5615C16.619 16.5615 15.099 15.032 15.099 13.151C15.099 11.27 16.619 9.75 18.5 9.75C20.381 9.75 21.901 11.27 21.901 13.151C21.901 15.032 20.381 16.5615 18.5 16.5615Z" stroke="#FFFEFE" stroke-width="1.5" stroke-linecap="round" stroke-linejoin="round"/>
</svg>
